<?xml version="1.0" standalone="no"?>
<!DOCTYPE svg PUBLIC "-//W3C//DTD SVG 20010904//EN"
 "http://www.w3.org/TR/2001/REC-SVG-20010904/DTD/svg10.dtd">
<svg version="1.0" xmlns="http://www.w3.org/2000/svg"
 width="700.000000pt" height="700.000000pt" viewBox="0 0 700.000000 700.000000"
 preserveAspectRatio="xMidYMid meet">
<metadata>
Created by potrace 1.11, written by Peter Selinger 2001-2013
</metadata>
<g transform="translate(0.000000,700.000000) scale(0.100000,-0.100000)"
fill="#000000" stroke="none">
<path d="M3367 6934 c-1 -1 -49 -5 -107 -8 -584 -38 -1175 -241 -1675 -576
-311 -209 -618 -501 -835 -795 -181 -244 -333 -513 -435 -770 -9 -22 -20 -49
-25 -60 -47 -109 -140 -441 -164 -585 -2 -14 -7 -43 -11 -65 -12 -66 -13 -68
-20 -130 -4 -33 -8 -71 -11 -84 -24 -159 -21 -584 6 -766 5 -33 11 -82 15
-110 16 -133 112 -523 156 -631 6 -16 15 -38 20 -49 4 -11 20 -51 34 -90 37
-97 176 -380 228 -462 62 -100 125 -197 135 -208 5 -6 25 -35 46 -65 104 -152
382 -454 550 -595 381 -322 817 -554 1306 -694 91 -26 328 -78 390 -85 25 -3
81 -10 125 -16 91 -12 284 -24 395 -24 87 0 346 12 375 18 11 2 47 7 80 11 32
4 66 8 75 10 8 1 35 6 60 10 482 76 1027 306 1440 609 203 148 449 376 590
545 25 29 50 59 55 65 66 73 235 319 314 456 131 226 272 568 334 805 8 33 21
80 27 105 7 24 14 56 17 70 2 14 10 57 18 95 14 70 18 96 30 190 3 28 8 64 10
80 26 200 23 544 -6 775 -6 47 -13 99 -15 115 -2 17 -6 41 -8 55 -3 14 -8 39
-11 55 -90 470 -269 905 -533 1290 -41 61 -84 122 -96 137 -12 14 -32 41 -46
59 -25 33 -58 72 -115 139 -50 59 -297 303 -355 352 -498 417 -1098 693 -1700
782 -89 13 -213 26 -295 32 -79 5 -364 11 -368 8z"/>
</g>
</svg>
